<?xml version="1.0" standalone="no"?>
<!DOCTYPE svg PUBLIC "-//W3C//DTD SVG 1.1//EN" "http://www.w3.org/Graphics/SVG/1.1/DTD/svg11.dtd">
<svg xmlns="http://www.w3.org/2000/svg" xmlns:xlink="http://www.w3.org/1999/xlink" id="Layer_1" version="1.1" viewBox="0 0 822 448.99" width="822" height="448.989990234375">
  <!-- Generator: Adobe Illustrator 29.6.1, SVG Export Plug-In . SVG Version: 2.1.1 Build 9)  -->
  <defs>
    <style>
      .st0 {
        fill: url(#linear-gradient11);
      }

      .st0, .st1, .st2, .st3, .st4, .st5, .st6, .st7, .st8, .st9, .st10, .st11, .st12, .st13 {
        fill-rule: evenodd;
      }

      .st1 {
        fill: url(#linear-gradient10);
      }

      .st2 {
        fill: #fff;
      }

      .st14 {
        fill: url(#linear-gradient13);
      }

      .st15 {
        fill: url(#linear-gradient12);
      }

      .st3, .st16 {
        fill: #4b2726;
      }

      .st17, .st18 {
        isolation: isolate;
      }

      .st4 {
        fill: url(#linear-gradient);
      }

      .st5 {
        fill: url(#linear-gradient1);
      }

      .st6 {
        fill: url(#linear-gradient2);
      }

      .st7 {
        fill: url(#linear-gradient8);
      }

      .st8 {
        fill: url(#linear-gradient7);
      }

      .st9 {
        fill: url(#linear-gradient4);
      }

      .st10 {
        fill: url(#linear-gradient5);
      }

      .st11 {
        fill: url(#linear-gradient3);
      }

      .st12 {
        fill: url(#linear-gradient6);
      }

      .st13 {
        fill: url(#linear-gradient9);
      }

      .st18 {
        font-family: ArialMT, Arial;
        font-size: 6.48px;
      }
    </style>
    <linearGradient id="linear-gradient" x1="233.9" y1="717.86" x2="435.14" y2="516.63" gradientTransform="translate(0 -400)" gradientUnits="userSpaceOnUse">
      <stop offset="0" stop-color="#dc792e"/>
      <stop offset="1" stop-color="#eb8c32"/>
    </linearGradient>
    <linearGradient id="linear-gradient1" x1="389.15" y1="681.32" x2="649.4" y2="421.08" gradientTransform="translate(0 -400)" gradientUnits="userSpaceOnUse">
      <stop offset="0" stop-color="#dc792e"/>
      <stop offset="1" stop-color="#eb8c32"/>
    </linearGradient>
    <linearGradient id="linear-gradient2" x1="570.2" y1="691.96" x2="376.45" y2="443.97" gradientTransform="translate(0 -400)" gradientUnits="userSpaceOnUse">
      <stop offset="0" stop-color="#ce6730"/>
      <stop offset="1" stop-color="#dc792e"/>
    </linearGradient>
    <linearGradient id="linear-gradient3" x1="233.59" y1="538.28" x2="279.92" y2="491.94" gradientTransform="translate(0 -400)" gradientUnits="userSpaceOnUse">
      <stop offset="0" stop-color="#e6e7e8"/>
      <stop offset="1" stop-color="#fff"/>
    </linearGradient>
    <linearGradient id="linear-gradient4" x1="337.3" y1="583.7" x2="356.23" y2="561.93" gradientTransform="translate(0 -400)" gradientUnits="userSpaceOnUse">
      <stop offset="0" stop-color="#e6e7e8"/>
      <stop offset="1" stop-color="#fff"/>
    </linearGradient>
    <linearGradient id="linear-gradient5" x1="263.51" y1="539.01" x2="417.38" y2="385.14" gradientTransform="translate(0 -400)" gradientUnits="userSpaceOnUse">
      <stop offset="0" stop-color="#dc792e"/>
      <stop offset="1" stop-color="#eb8c32"/>
    </linearGradient>
    <linearGradient id="linear-gradient6" x1="227.66" y1="494.27" x2="271.96" y2="459.66" gradientTransform="translate(0 -400)" gradientUnits="userSpaceOnUse">
      <stop offset="0" stop-color="#ce6730"/>
      <stop offset="1" stop-color="#dc792e"/>
    </linearGradient>
    <linearGradient id="linear-gradient7" x1="375.91" y1="500.68" x2="337.63" y2="451.68" gradientTransform="translate(0 -400)" gradientUnits="userSpaceOnUse">
      <stop offset="0" stop-color="#ce6730"/>
      <stop offset="1" stop-color="#dc792e"/>
    </linearGradient>
    <linearGradient id="linear-gradient8" x1="361.71" y1="743.96" x2="215.55" y2="556.89" gradientTransform="translate(0 -400)" gradientUnits="userSpaceOnUse">
      <stop offset="0" stop-color="#ce6730"/>
      <stop offset="1" stop-color="#dc792e"/>
    </linearGradient>
    <linearGradient id="linear-gradient9" x1="289.68" y1="752.79" x2="395.74" y2="646.72" gradientTransform="translate(0 -400)" gradientUnits="userSpaceOnUse">
      <stop offset="0" stop-color="#dc792e"/>
      <stop offset="1" stop-color="#eb8c32"/>
    </linearGradient>
    <linearGradient id="linear-gradient10" x1="309.76" y1="581.08" x2="332.19" y2="558.66" gradientTransform="translate(0 -400)" gradientUnits="userSpaceOnUse">
      <stop offset="0" stop-color="#e6e7e8"/>
      <stop offset="1" stop-color="#fff"/>
    </linearGradient>
    <linearGradient id="linear-gradient11" x1="342.2" y1="534.31" x2="384.92" y2="491.59" gradientTransform="translate(0 -400)" gradientUnits="userSpaceOnUse">
      <stop offset="0" stop-color="#e6e7e8"/>
      <stop offset="1" stop-color="#fff"/>
    </linearGradient>
    <linearGradient id="linear-gradient12" x1="362.67" y1="49.36" x2="444.75" y2="49.36" gradientTransform="translate(0 450) scale(1 -1)" gradientUnits="userSpaceOnUse">
      <stop offset="0" stop-color="#dc792e"/>
      <stop offset="1" stop-color="#eb8c32"/>
    </linearGradient>
    <linearGradient id="linear-gradient13" x1="451.73" y1="50.12" x2="505.43" y2="50.12" gradientTransform="translate(0 450) scale(1 -1)" gradientUnits="userSpaceOnUse">
      <stop offset="0" stop-color="#dc792e"/>
      <stop offset="1" stop-color="#eb8c32"/>
    </linearGradient>
  </defs>
  <g>
    <path class="st4" d="M428.51,125.97c8.34,61.71,10.01,123-1.67,185.12h-185.95c-10.01-59.62-9.59-121.75-1.67-184.7,11.26,7.92,26.68,12.51,43.78,12.51,21.26,0,40.03-7.5,50.87-18.76,10.84,11.26,29.6,18.76,50.87,18.76,17.09,0,32.94-5,43.78-12.93h0Z"/>
    <path class="st2" d="M358.46,154.74v27.52c0,2.5-2.5,5-6.25,5h-12.93c-3.34,0-4.17-.42-4.59-3.75l-1.67-10.84-.42,10.84c0,2.92,0,3.75-3.34,3.75h-14.59c-3.34,0-5.84-2.08-5.84-5v-27.52h49.63Z"/>
    <path class="st5" d="M581.94,256.05c3.34-1.25,14.59-5.42,18.76-7.09-20.01,55.45-119.66,61.71-166.77,61.71,12.51-62.12,14.59-130.08,0-198.88l-10.01-42.94c22.93-50.03,86.72-80.89,146.34-60.46-15.43,4.17-18.76,5.84-25.43,14.59,28.77-.83,49.2,10.42,57.54,44.61-23.77-33.77-76.3-30.02-85.06,8.34-7.09,32.52,22.51,44.2,49.2,63.79,47.11,34.19,45.03,86.31,15.43,116.33Z"/>
    <path class="st6" d="M434.35,310.67c12.51-62.12,14.59-130.08,0-198.88l-10.01-42.94c13.34-29.6,41.28-52.12,73.8-61.71-43.78,22.1-53.78,70.05-37.11,107.57,10.01,22.93,32.1,42.11,47.95,61.29l2.92-9.17c6.25,2.5,13.34,32.52,7.92,45.86,2.08-2.92,9.17-17.51,12.09-21.26,12.09,45.86-13.34,85.47-55.45,108.4-6.67,3.75-14.18,6.67-21.68,8.34-6.25,1.67-13.34,2.5-20.43,2.5h0Z"/>
    <path class="st2" d="M282.58,56.76c21.26,0,40.03,7.5,50.87,18.76,10.84-11.26,29.6-18.76,50.87-18.76,33.35,0,60.46,18.76,60.46,41.28s-27.52,41.28-60.46,41.28c-21.26,0-40.03-7.5-50.87-18.76-10.84,11.26-29.6,18.76-50.87,18.76-33.35,0-60.46-18.35-60.46-41.28s27.1-41.28,60.46-41.28Z"/>
    <g>
      <path class="st3" d="M285.5,113.88c10.01,0,18.76-7.09,18.76-15.43s-8.76-15.43-18.76-15.43-18.76,7.09-18.76,15.43c-.42,8.76,8.34,15.43,18.76,15.43Z"/>
      <path class="st3" d="M381.81,113.88c10.42,0,18.76-7.09,18.76-15.43s-8.34-15.43-18.76-15.43-18.76,7.09-18.76,15.43c0,8.76,8.34,15.43,18.76,15.43Z"/>
    </g>
    <path class="st11" d="M239.64,94.7v3.34c0,17.93,18.35,33.35,42.53,36.69-28.35-.42-50.87-17.09-50.87-37.11,0-.83,0-1.67.42-2.5h7.92v-.42h0Z"/>
    <path class="st9" d="M357.63,182.25c0,1.67-.42,2.5-2.92,2.5l-12.51,1.25c-2.5,0-5.42-1.67-5.84-3.75l-1.67-18.76,3.75,15.43c.42.83.42,1.67,1.67,2.08.42,1.67,2.92,2.92,5.84,2.5l11.67-1.25h.01Z"/>
    <g>
      <path class="st10" d="M249.23,63.43l1.67-.83c-3.75-13.34-11.26-23.35,2.5-50.45,9.17,17.51,39.19,22.1,41.28,45.45,14.59,1.67,28.77,7.5,38.78,17.93,10.01-10.42,23.77-16.26,38.36-17.93,15.01-35.44,27.1-24.18,37.94-45.45,11.26,18.76,15.84,27.93,5.84,50.87l1.67.83c15.01,7.09,25.43,17.93,27.1,31.27h-222.64c1.67-13.76,12.51-24.6,27.52-31.69h-.02Z"/>
      <path class="st2" d="M260.9,60.09c-1.67-7.09-5.84-12.51,1.67-26.27,4.59,9.17,20.01,11.26,20.85,23.35h.42-3.34c-6.67,0-13.76.83-19.6,2.92h0Z"/>
      <path class="st2" d="M406.83,60.09c1.67-7.09,5.84-12.51-1.67-26.27-4.59,9.17-20.01,11.26-20.85,23.35h-.42,3.34c6.67,0,13.34.83,19.6,2.92h0Z"/>
      <path class="st12" d="M240.05,94.7c-.42-18.35,18.35-30.85,34.19-33.77-16.68.42-42.53,11.26-42.94,33.77h8.76,0Z"/>
      <path class="st8" d="M344.7,94.7c0-20.01,19.18-31.69,35.02-33.77-20.01-1.67-45.45,17.51-43.36,33.77h8.34Z"/>
    </g>
    <path class="st7" d="M279.13,139.2c-4.17,37.94.53,85.17,28.88,110.6,36.27,31.69,94.23,11.67,107.15,60.87h-164.27c-7.92-73.38-7.95-130.12.39-177.23,8.34,3.34,17.84,5.34,27.85,5.76h0Z"/>
    <path class="st13" d="M251.31,310.67h.42v-1.67c0-18.35,17.09-33.35,38.36-33.35s38.78,15.01,38.78,33.35v1.67h9.17v-1.67c0-18.35,17.51-33.35,38.78-33.35s38.36,15.01,38.36,33.35v1.67h10.84-174.71Z"/>
    <path class="st3" d="M318.02,310.67h-11.26c.42-8.34-.42-22.51,7.92-9.17,2.92,3.75,2.92,5,3.34,9.17h0ZM273.82,310.67h-10.84c.42-3.75,1.25-6.25,2.5-7.92,9.59-14.59,8.34,1.25,8.34,7.92h0ZM296.34,310.67h-11.26c1.25-21.68,11.26-16.68,11.26,0Z"/>
    <path class="st3" d="M404.33,310.67h-10.84c0-8.34-.42-22.51,7.92-9.17,2.08,3.75,2.5,5,2.92,9.17h0ZM360.55,310.67h-11.26c.42-3.75,1.25-6.25,2.5-7.92,10.01-14.59,7.92,1.25,8.76,7.92h0ZM382.23,310.67h-11.26c1.67-21.68,11.67-16.68,11.26,0Z"/>
    <path class="st1" d="M331.36,183.09c0,1.67-.42,2.08-2.92,2.08h-12.51c-2.92,0-5.42-1.67-5.42-3.75v-25.85c1.25.42,2.5,1.25,3.75,1.67v21.68c0,2.5,2.5,4.59,5.84,4.59h11.26v-.42h0Z"/>
    <path class="st0" d="M344.7,94.7c-.42,1.25-.42,2.08-.42,3.34,0,4.59.83,8.34,2.92,12.51-2.92-.42-5.84-1.25-8.76-1.67-1.67-3.75-2.5-7.5-2.5-11.26,0-.83,0-1.67.42-2.5h8.34v-.42ZM371.39,130.55c5,1.67,10.01,3.34,15.43,4.17-5.42-.42-10.42-.83-15.43-2.08.42-.83.42-1.67,0-2.08h0Z"/>
    <path class="st3" d="M333.45,160.99c21.26,0,38.78-12.09,38.78-26.27s-17.51-26.27-38.78-26.27-38.36,11.67-38.36,26.27,17.51,26.27,38.36,26.27Z"/>
    <path class="st2" d="M347.62,132.64c5.84,0,10.84-3.34,10.84-7.5,0-3.75-5-7.09-10.84-7.09s-10.84,3.34-10.84,7.09c0,4.17,4.59,7.5,10.84,7.5Z"/>
  </g>
  <g class="st17">
    <text class="st18" transform="translate(889.05 138.66)"><tspan x="0" y="0" xml:space="preserve">                                                                                                                      </tspan></text>
  </g>
  <g class="st17">
    <text class="st18" transform="translate(975.45 138.66)"><tspan x="0" y="0" xml:space="preserve">                                                                                                                      </tspan></text>
  </g>
  <g>
    <g>
      <path class="st16" d="M105.79,423.79c0,.91-.6,2.11-1.8,3.59-10.49,12.48-24.43,18.73-41.81,18.73s-32.21-6.07-43.27-18.21c-10.77-11.74-16.16-26.56-16.16-44.46s5.27-32.04,15.82-44.12c11-12.65,25-18.98,41.98-18.98,18.47,0,32.95,5.67,43.44,17.02,1.14,1.25,1.71,2.37,1.71,3.33,0,1.08-1.98,5.1-5.94,12.06-3.96,6.95-6.46,10.86-7.48,11.71-.46.46-1.03.68-1.71.68-.29,0-1.71-1.14-4.28-3.42-3.08-2.74-6.1-4.87-9.06-6.41-4.5-2.28-9.18-3.42-14.02-3.42-8.38,0-15.08,3.14-20.09,9.41-4.62,5.81-6.93,13-6.93,21.55s2.31,15.93,6.93,21.8c5.02,6.38,11.71,9.58,20.09,9.58,4.96,0,9.66-1.08,14.11-3.25,2.91-1.43,5.87-3.42,8.89-5.99,2.51-2.17,3.9-3.25,4.19-3.25.57,0,1.14.31,1.71.94.91,1.03,3.39,4.59,7.44,10.69,4.16,6.33,6.24,9.8,6.24,10.43h0Z"/>
      <path class="st16" d="M193.98,396.69c0,5.76-1.85,9.03-5.56,9.83-.63.11-6.53.74-17.7,1.88-6.73.74-16.76,1.62-30.1,2.65.8,3.71,3.22,6.53,7.27,8.46,3.31,1.6,7.07,2.39,11.29,2.39,5.07,0,10.18-1.37,15.31-4.1l6.5-4.1c1.2.57,3.21,3.48,6.03,8.72s4.23,8.58,4.23,10c0,.4-.43,1.05-1.28,1.97-6.95,7.47-17.76,11.2-32.41,11.2-13.57,0-24.51-3.96-32.83-11.89-8.55-8.04-12.83-18.78-12.83-32.24s3.82-23.86,11.46-32.24c7.87-8.66,18.3-13,31.29-13,10.94,0,20.24,3.99,27.87,11.97s11.46,17.47,11.46,28.47v.03ZM164.05,391.47c0-3.53-1.25-6.64-3.76-9.32s-5.5-4.02-8.98-4.02-6.56,1.51-8.89,4.53c-2.17,2.79-3.25,6.07-3.25,9.83,0,1.54.8,2.31,2.39,2.31,4.22,0,10.77-.66,19.67-1.97,1.88-.29,2.82-.74,2.82-1.37h0Z"/>
      <path class="st16" d="M261.3,389.84c0,2.22-1.23,3.33-3.68,3.33-1.08,0-2.66-.07-4.75-.21s-3.63-.21-4.66-.21c-4.73,0-7.95.74-9.66,2.22s-2.57,4.47-2.57,8.98c0,2.45.04,6.17.13,11.16s.13,8.71.13,11.16c0,1.65.11,4.12.34,7.4s.34,5.71.34,7.31c0,1.37-.94,2.14-2.82,2.31-2.74.23-6.93.34-12.57.34s-9.75-.17-13-.51c-1.88-.23-2.82-1.17-2.82-2.82,0-4.56.03-11.39.09-20.48s.09-15.92.09-20.48c0-13.4-1.23-24.43-3.68-33.09-.11-.51-.17-.94-.17-1.28,0-.86.43-1.43,1.28-1.71,3.14-.34,7.72-.97,13.77-1.88,9.01-1.77,13.65-2.65,13.94-2.65,1.03,0,1.68,1.8,1.97,5.39s.8,5.39,1.54,5.39c-.8,0,1.54-1.5,7.01-4.49s10.75-4.49,15.82-4.49c3.19,0,4.79.68,4.79,2.05,0,1.65-.17,3.99-.51,7.01-.34,3.25-.54,5.59-.6,7.01,0,1.65.03,3.85.09,6.58.11,3.36.17,5.59.17,6.67h0Z"/>
      <path class="st16" d="M354.78,401.05c0,13-3.98,23.54-11.93,31.64s-18.4,12.14-31.34,12.14-22.86-3.99-30.95-11.97-12.14-18.24-12.14-30.78c0-13.22,3.88-23.96,11.63-32.19,7.75-8.24,18.24-12.36,31.47-12.36s23.31,4.03,31.29,12.1,11.97,18.54,11.97,31.42h0ZM326.74,401.05c0-4.5-1.4-8.48-4.19-11.93s-6.41-5.17-10.86-5.17-8.21,1.77-11.12,5.3c-2.74,3.31-4.1,7.24-4.1,11.8s1.37,8.58,4.1,11.89c2.91,3.53,6.61,5.3,11.12,5.3s8.12-1.77,11.03-5.3c2.68-3.31,4.02-7.27,4.02-11.89h0Z"/>
    </g>
    <g>
      <path class="st16" d="M579.03,416.23c0,1.71-.21,4.3-.64,7.78s-.64,6.03-.64,7.65-.17,2.66-.51,3.12-1.28,1.11-2.82,1.97c-7.35,4.05-15.5,6.07-24.45,6.07-16.47,0-24.71-6.3-24.71-18.9,0-3.76.14-9.42.43-16.97s.43-13.21.43-16.97c0-2.51-1.45-3.76-4.36-3.76h-1.11c-.51.06-.88.09-1.11.09-2.17,0-3.25-.77-3.25-2.31,0-.91.07-2.31.21-4.19s.21-3.28.21-4.19c0-1.2-.07-3.02-.21-5.47s-.21-4.28-.21-5.47,1.82-1.77,5.47-1.88c2.05-.06,3.16-.63,3.33-1.71.34-2.17.46-5.59.34-10.26-.23-7.35-.34-10.86-.34-10.52,0-6.61.63-9.92,1.88-9.92,1.54,0,3.73.34,6.58,1.03,3.25.74,5.5,1.17,6.75,1.28,2.91.4,7.3.94,13.17,1.62,1.43.11,2.14.6,2.14,1.45,0,2.28-.19,5.73-.56,10.35s-.56,8.09-.56,10.43c0,2.79.83,4.19,2.48,4.19,2,0,5.02-.09,9.06-.26s7.1-.26,9.15-.26c1.25,0,1.88.43,1.88,1.28,0,1.31-.14,3.28-.43,5.9s-.43,4.59-.43,5.9.03,3.36.09,5.99.09,4.62.09,5.99c0,1.2-.83,1.8-2.48,1.8-1.14,0-3.05-.04-5.73-.13s-4.59-.13-5.73-.13h-6.41c-.86,0-1.28,1.25-1.28,3.76v6.07c.06,2.74.09,4.76.09,6.07,0,4.79.54,8.09,1.62,9.92,1.54,2.45,4.56,3.68,9.06,3.68,1.43,0,3.46-.33,6.11-.98s4.52-.98,5.6-.98c1.2,0,1.8.63,1.8,1.88h0Z"/>
      <path class="st16" d="M645.92,388.01c0,2.22-1.23,3.33-3.68,3.33-1.08,0-2.66-.07-4.75-.21s-3.63-.21-4.66-.21c-4.73,0-7.95.74-9.66,2.22s-2.57,4.47-2.57,8.98c0,2.45.04,6.17.13,11.16s.13,8.71.13,11.16c0,1.65.11,4.12.34,7.4s.34,5.71.34,7.31c0,1.37-.94,2.14-2.82,2.31-2.74.23-6.93.34-12.57.34s-9.75-.17-13-.51c-1.88-.23-2.82-1.17-2.82-2.82,0-4.56.03-11.39.09-20.48s.09-15.92.09-20.48c0-13.4-1.23-24.43-3.68-33.09-.11-.51-.17-.94-.17-1.28,0-.86.43-1.43,1.28-1.71,3.14-.34,7.72-.97,13.77-1.88,9.01-1.77,13.65-2.65,13.94-2.65,1.03,0,1.68,1.8,1.97,5.39s.8,5.39,1.54,5.39c-.8,0,1.54-1.5,7.01-4.49s10.75-4.49,15.82-4.49c3.19,0,4.79.68,4.79,2.05,0,1.65-.17,3.99-.51,7.01-.34,3.25-.54,5.59-.6,7.01,0,1.65.03,3.85.09,6.58.11,3.36.17,5.59.17,6.67h-.01Z"/>
      <path class="st16" d="M735.47,394.85c0,5.76-1.85,9.03-5.56,9.83-.63.11-6.53.74-17.7,1.88-6.73.74-16.76,1.62-30.1,2.65.8,3.71,3.22,6.53,7.27,8.46,3.31,1.6,7.07,2.39,11.29,2.39,5.07,0,10.18-1.37,15.31-4.1l6.5-4.1c1.2.57,3.21,3.48,6.03,8.72s4.23,8.58,4.23,10c0,.4-.43,1.05-1.28,1.97-6.95,7.47-17.76,11.2-32.41,11.2-13.57,0-24.51-3.96-32.83-11.89-8.55-8.04-12.83-18.78-12.83-32.24s3.82-23.86,11.46-32.24c7.87-8.66,18.3-13,31.29-13,10.94,0,20.24,3.99,27.87,11.97s11.46,17.47,11.46,28.47v.03ZM705.55,389.64c0-3.53-1.25-6.64-3.76-9.32s-5.5-4.02-8.98-4.02-6.56,1.51-8.89,4.53c-2.17,2.79-3.25,6.07-3.25,9.83,0,1.54.8,2.31,2.39,2.31,4.22,0,10.77-.66,19.67-1.97,1.88-.29,2.82-.74,2.82-1.37h0Z"/>
    </g>
    <g>
      <path class="st15" d="M444.75,396.42c0,5.76-1.85,9.03-5.56,9.83-.63.11-6.53.74-17.7,1.88-6.73.74-16.76,1.62-30.1,2.65.8,3.71,3.22,6.53,7.27,8.46,3.31,1.6,7.07,2.39,11.29,2.39,5.07,0,10.18-1.37,15.31-4.1l6.5-4.1c1.2.57,3.21,3.48,6.03,8.72s4.23,8.58,4.23,10c0,.4-.43,1.05-1.28,1.97-6.95,7.47-17.76,11.2-32.41,11.2-13.57,0-24.51-3.96-32.83-11.89-8.55-8.04-12.83-18.78-12.83-32.24s3.82-23.86,11.46-32.24c7.87-8.66,18.3-13,31.29-13,10.94,0,20.24,3.99,27.87,11.97s11.46,17.47,11.46,28.47v.03ZM414.83,391.21c0-3.53-1.25-6.64-3.76-9.32s-5.5-4.02-8.98-4.02-6.56,1.51-8.89,4.53c-2.17,2.79-3.25,6.07-3.25,9.83,0,1.54.8,2.31,2.39,2.31,4.22,0,10.77-.66,19.67-1.97,1.88-.29,2.82-.74,2.82-1.37h0Z"/>
      <path class="st14" d="M505.41,373.68c0,.57-.43,1.34-1.28,2.31-1.6-.4-3.19-.6-4.79-.6-3.36,0-6.18.74-8.46,2.22-2.74,1.71-4.1,4.13-4.1,7.27,0,2,1.45,4.53,4.36,7.61,4.39,4.62,7.1,7.72,8.12,9.32,2.91,4.33,4.36,8.98,4.36,13.94,0,2.91-.57,5.99-1.71,9.23-1.31,3.59-2.96,6.21-4.96,7.87-4.22,3.65-9.15,6.73-14.79,9.23-6.1,2.62-11.71,3.93-16.84,3.93-1.14,0-3.69-3.09-7.65-9.28s-5.94-9.96-5.94-11.33c0-.51.31-.83.94-.94,3.99-.74,8.01-1.48,12.06-2.22,5.02-1.6,7.52-4.22,7.52-7.87,0-2.51-1.45-5.42-4.36-8.72-5.19-5.76-7.89-8.81-8.12-9.15-2.91-4.1-4.36-8.44-4.36-13,0-8.55,4.33-15.82,13-21.8,7.75-5.3,16.05-7.95,24.88-7.95.91,0,3.16,3.06,6.75,9.19s5.39,9.7,5.39,10.73h-.02Z"/>
    </g>
    <path class="st3" d="M811.81,346.3c-32.52-17.09-89.64,13.34-63.79,50.03,0,.42,2.92,3.75,7.92,9.17,2.92,3.75,4.59,6.25,4.59,9.17,0,3.75-2.5,6.25-7.92,7.92-3.75.42-7.92,1.67-12.51,2.08-.42.42-.83.42-.83.83,0,1.67,2.08,5.42,6.25,11.67,3.75,6.25,6.67,9.17,7.92,9.17,5,0,10.84-1.25,17.09-3.75,5.84-2.5,10.84-5.84,15.01-9.17,2.08-1.67,3.75-4.59,5-7.92s1.67-6.25,1.67-9.17c0-5-1.67-10.01-4.59-14.59-1.25-1.67-3.75-5-8.34-9.17-7.09-7.92-5.84-17.93,5.42-23.35,5-2.08,4.17-.83,9.59-2.92-1.25-1.67-3.34-2.5-6.25-3.34,11.67-3.75,21.26-1.67,30.44,11.26-.42-15.01-7.92-22.51-21.26-22.93,4.17-3.34,7.09-3.34,14.59-5h0Z"/>
  </g>
  <path class="st16" d="M801.21,320.32c3.8,0,6.75,2.95,6.75,6.63s-2.95,6.67-6.79,6.67-6.83-2.91-6.83-6.67,3.03-6.63,6.83-6.63h.04ZM801.13,321.65c-2.91,0-5.09,2.39-5.09,5.3s2.18,5.29,5.17,5.29c2.91.04,5.05-2.34,5.05-5.29s-2.14-5.3-5.09-5.3h-.04,0ZM800.11,330.38h-1.53v-6.59c.6-.12,1.45-.24,2.55-.24,1.25,0,1.82.2,2.3.53.36.28.64.81.64,1.41,0,.77-.57,1.33-1.38,1.57v.08c.65.2,1.01.73,1.21,1.62.2,1.01.33,1.41.49,1.62h-1.66c-.2-.24-.32-.81-.52-1.58-.12-.73-.52-1.05-1.37-1.05h-.73v2.63h0ZM800.15,326.66h.73c.85,0,1.54-.28,1.54-.97,0-.6-.45-1.01-1.42-1.01-.4,0-.68.04-.85.08v1.9h0Z"/>
</svg>