<?xml version="1.0" encoding="UTF-8" standalone="no"?>
<!-- Created with Inkscape (http://www.inkscape.org/) -->

<svg
   version="1.1"
   id="svg2"
   width="949.33331"
   height="1056"
   viewBox="0 0 949.33331 1056"
   xmlns="http://www.w3.org/2000/svg"
   xmlns:svg="http://www.w3.org/2000/svg">
  <defs
     id="defs6">
    <linearGradient
       x1="0"
       y1="0"
       x2="1"
       y2="0"
       gradientUnits="userSpaceOnUse"
       gradientTransform="matrix(56.572861,56.572861,56.572861,-56.572845,344.10449,271.68848)"
       spreadMethod="pad"
       id="linearGradient26">
      <stop
         style="stop-opacity:1;stop-color:#da6922"
         offset="0"
         id="stop22" />
      <stop
         style="stop-opacity:1;stop-color:#eb7f23"
         offset="1"
         id="stop24" />
    </linearGradient>
    <clipPath
       clipPathUnits="userSpaceOnUse"
       id="clipPath36">
      <path
         d="M 0,792 H 712 V 0 H 0 Z"
         id="path34" />
    </clipPath>
    <linearGradient
       x1="0"
       y1="0"
       x2="1"
       y2="0"
       gradientUnits="userSpaceOnUse"
       gradientTransform="matrix(111.06294,111.06294,111.06294,-111.06293,259.04395,345.24805)"
       spreadMethod="pad"
       id="linearGradient58">
      <stop
         style="stop-opacity:1;stop-color:#da6922"
         offset="0"
         id="stop54" />
      <stop
         style="stop-opacity:1;stop-color:#eb7f23"
         offset="1"
         id="stop56" />
    </linearGradient>
    <clipPath
       clipPathUnits="userSpaceOnUse"
       id="clipPath68">
      <path
         d="M 0,792 H 712 V 0 H 0 Z"
         id="path66" />
    </clipPath>
    <linearGradient
       x1="0"
       y1="0"
       x2="1"
       y2="0"
       gradientUnits="userSpaceOnUse"
       gradientTransform="matrix(143.63551,143.63551,143.63551,-143.63551,345.01758,365.12695)"
       spreadMethod="pad"
       id="linearGradient90">
      <stop
         style="stop-opacity:1;stop-color:#da6922"
         offset="0"
         id="stop86" />
      <stop
         style="stop-opacity:1;stop-color:#eb7f23"
         offset="1"
         id="stop88" />
    </linearGradient>
    <linearGradient
       x1="0"
       y1="0"
       x2="1"
       y2="0"
       gradientUnits="userSpaceOnUse"
       gradientTransform="matrix(-106.935,136.87057,136.87057,106.93501,444.6709,359.81152)"
       spreadMethod="pad"
       id="linearGradient110">
      <stop
         style="stop-opacity:1;stop-color:#cb5727"
         offset="0"
         id="stop106" />
      <stop
         style="stop-opacity:1;stop-color:#da6922"
         offset="1"
         id="stop108" />
    </linearGradient>
    <clipPath
       clipPathUnits="userSpaceOnUse"
       id="clipPath120">
      <path
         d="M 0,792 H 712 V 0 H 0 Z"
         id="path118" />
    </clipPath>
    <linearGradient
       x1="0"
       y1="0"
       x2="1"
       y2="0"
       gradientUnits="userSpaceOnUse"
       gradientTransform="matrix(25.569916,25.569916,25.569916,-25.569916,258.896,444.34326)"
       spreadMethod="pad"
       id="linearGradient150">
      <stop
         style="stop-opacity:1;stop-color:#e9e9e9"
         offset="0"
         id="stop146" />
      <stop
         style="stop-opacity:1;stop-color:#ffffff"
         offset="1"
         id="stop148" />
    </linearGradient>
    <linearGradient
       x1="0"
       y1="0"
       x2="1"
       y2="0"
       gradientUnits="userSpaceOnUse"
       gradientTransform="matrix(10.44751,12.018494,12.018494,-10.44751,316.24707,419.19434)"
       spreadMethod="pad"
       id="linearGradient170">
      <stop
         style="stop-opacity:1;stop-color:#e9e9e9"
         offset="0"
         id="stop166" />
      <stop
         style="stop-opacity:1;stop-color:#ffffff"
         offset="1"
         id="stop168" />
    </linearGradient>
    <clipPath
       clipPathUnits="userSpaceOnUse"
       id="clipPath180">
      <path
         d="M 0,792 H 712 V 0 H 0 Z"
         id="path178" />
    </clipPath>
    <linearGradient
       x1="0"
       y1="0"
       x2="1"
       y2="0"
       gradientUnits="userSpaceOnUse"
       gradientTransform="matrix(84.925049,84.925049,84.925049,-84.925034,276.67627,444.9751)"
       spreadMethod="pad"
       id="linearGradient206">
      <stop
         style="stop-opacity:1;stop-color:#da6922"
         offset="0"
         id="stop202" />
      <stop
         style="stop-opacity:1;stop-color:#eb7f23"
         offset="1"
         id="stop204" />
    </linearGradient>
    <clipPath
       clipPathUnits="userSpaceOnUse"
       id="clipPath216">
      <path
         d="M 0,792 H 712 V 0 H 0 Z"
         id="path214" />
    </clipPath>
    <linearGradient
       x1="0"
       y1="0"
       x2="1"
       y2="0"
       gradientUnits="userSpaceOnUse"
       gradientTransform="matrix(24.446808,19.099945,19.099945,-24.446808,255.63525,468.57031)"
       spreadMethod="pad"
       id="linearGradient242">
      <stop
         style="stop-opacity:1;stop-color:#cb5727"
         offset="0"
         id="stop238" />
      <stop
         style="stop-opacity:1;stop-color:#da6922"
         offset="1"
         id="stop240" />
    </linearGradient>
    <linearGradient
       x1="0"
       y1="0"
       x2="1"
       y2="0"
       gradientUnits="userSpaceOnUse"
       gradientTransform="matrix(-21.125061,27.038849,27.038849,21.125061,338.38379,464.3252)"
       spreadMethod="pad"
       id="linearGradient262">
      <stop
         style="stop-opacity:1;stop-color:#cb5727"
         offset="0"
         id="stop258" />
      <stop
         style="stop-opacity:1;stop-color:#da6922"
         offset="1"
         id="stop260" />
    </linearGradient>
    <linearGradient
       x1="0"
       y1="0"
       x2="1"
       y2="0"
       gradientUnits="userSpaceOnUse"
       gradientTransform="matrix(-80.763153,103.37215,103.37215,80.763168,330.48633,330.00586)"
       spreadMethod="pad"
       id="linearGradient282">
      <stop
         style="stop-opacity:1;stop-color:#cb5727"
         offset="0"
         id="stop278" />
      <stop
         style="stop-opacity:1;stop-color:#da6922"
         offset="1"
         id="stop280" />
    </linearGradient>
    <linearGradient
       x1="0"
       y1="0"
       x2="1"
       y2="0"
       gradientUnits="userSpaceOnUse"
       gradientTransform="matrix(58.538651,58.538651,58.538651,-58.538651,291.17432,326.92383)"
       spreadMethod="pad"
       id="linearGradient302">
      <stop
         style="stop-opacity:1;stop-color:#da6922"
         offset="0"
         id="stop298" />
      <stop
         style="stop-opacity:1;stop-color:#eb7f23"
         offset="1"
         id="stop300" />
    </linearGradient>
    <clipPath
       clipPathUnits="userSpaceOnUse"
       id="clipPath312">
      <path
         d="M 0,792 H 712 V 0 H 0 Z"
         id="path310" />
    </clipPath>
    <linearGradient
       x1="0"
       y1="0"
       x2="1"
       y2="0"
       gradientUnits="userSpaceOnUse"
       gradientTransform="matrix(12.375275,12.375275,12.375275,-12.375275,301.00928,420.64209)"
       spreadMethod="pad"
       id="linearGradient338">
      <stop
         style="stop-opacity:1;stop-color:#e9e9e9"
         offset="0"
         id="stop334" />
      <stop
         style="stop-opacity:1;stop-color:#ffffff"
         offset="1"
         id="stop336" />
    </linearGradient>
    <linearGradient
       x1="0"
       y1="0"
       x2="1"
       y2="0"
       gradientUnits="userSpaceOnUse"
       gradientTransform="matrix(23.583725,23.583725,23.583725,-23.583725,318.87402,446.49609)"
       spreadMethod="pad"
       id="linearGradient358">
      <stop
         style="stop-opacity:1;stop-color:#e9e9e9"
         offset="0"
         id="stop354" />
      <stop
         style="stop-opacity:1;stop-color:#ffffff"
         offset="1"
         id="stop356" />
    </linearGradient>
    <linearGradient
       x1="0"
       y1="0"
       x2="1"
       y2="0"
       gradientUnits="userSpaceOnUse"
       gradientTransform="matrix(9.2998047,0,0,-9.2998047,459.48633,357.31641)"
       spreadMethod="pad"
       id="linearGradient378">
      <stop
         style="stop-opacity:1;stop-color:#da6922"
         offset="0"
         id="stop374" />
      <stop
         style="stop-opacity:1;stop-color:#eb7f23"
         offset="1"
         id="stop376" />
    </linearGradient>
  </defs>
  <g
     id="g8"
     transform="matrix(1.3333333,0,0,-1.3333333,0,1056)">
    <g
       id="g10">
      <g
         id="g12">
        <g
           id="g18">
          <g
             id="g20">
            <path
               d="m 390.382,322.082 c -4.806,-3.313 -7.292,-7.457 -7.292,-12.262 v 0 c 0,-2.65 0.833,-4.97 2.486,-7.289 v 0 c 0.165,-0.331 1.657,-1.986 4.638,-5.137 v 0 c 1.66,-1.988 2.487,-3.48 2.487,-4.97 v 0 c 0,-1.988 -1.493,-3.478 -4.308,-4.473 v 0 c -2.319,-0.332 -4.47,-0.828 -6.796,-1.16 v 0 c -0.326,-0.168 -0.493,-0.331 -0.493,-0.498 v 0 c 0,-0.829 1.159,-2.98 3.313,-6.459 v 0 c 2.154,-3.481 3.646,-5.137 4.305,-5.137 v 0 c 2.819,0 6.131,0.662 9.449,2.153 v 0 c 3.145,1.325 5.963,3.15 8.448,5.136 v 0 c 0.995,0.995 1.986,2.487 2.652,4.474 v 0 c 0.662,1.823 0.995,3.479 0.995,5.135 v 0 c 0,2.818 -0.834,5.472 -2.487,7.956 v 0 c -0.498,0.826 -1.986,2.649 -4.476,5.132 v 0 c -1.654,1.826 -2.486,3.151 -2.486,4.31 v 0 c 0,1.824 0.832,3.146 2.324,4.142 v 0 c 1.321,0.829 2.813,1.16 4.806,1.16 v 0 c 0.827,0 1.653,0 2.647,-0.331 v 0 c 0.498,0.661 0.663,0.994 0.663,1.327 v 0 c 0,0.66 -0.991,2.648 -2.985,6.129 v 0 c -1.985,3.313 -3.31,5.137 -3.81,5.137 v 0 c -4.967,0 -9.609,-1.491 -14.08,-4.475 m -36.453,3.149 v -12.26 c 1.988,0 3.648,-0.832 4.972,-2.323 v 0 c 1.328,-1.49 2.154,-3.147 2.154,-5.132 v 0 c 0,-0.334 -0.496,-0.666 -1.657,-0.833 v 0 c -1.987,-0.327 -3.809,-0.493 -5.469,-0.659 v 0 -9.114 c 4.643,0.332 8.119,0.663 10.771,0.997 v 0 c 6.296,0.659 9.608,0.991 9.941,1.16 v 0 c 2.154,0.327 3.15,2.151 3.15,5.464 v 0 c 0,6.129 -2.155,11.6 -6.463,16.071 v 0 c -4.311,4.475 -9.446,6.629 -15.576,6.629 v 0 z m -15.737,-7.292 c -4.31,-4.636 -6.464,-10.769 -6.464,-18.058 v 0 c 0,-7.619 2.32,-13.588 7.125,-18.229 v 0 c 3.977,-3.808 9.114,-5.961 15.076,-6.456 v 0 13.75 c -0.661,0.164 -1.322,0.331 -1.987,0.661 v 0 c -2.318,1.16 -3.645,2.817 -4.141,4.806 v 0 c 2.319,0.167 4.305,0.331 6.128,0.497 v 0 9.114 c -2.317,-0.334 -4.142,-0.499 -5.632,-0.499 v 0 c -0.829,0 -1.324,0.499 -1.324,1.325 v 0 c 0,2.156 0.661,3.978 1.822,5.636 v 0 c 1.325,1.653 2.981,2.485 4.971,2.485 v 0 h 0.163 v 12.26 c -6.461,-0.331 -11.762,-2.817 -15.737,-7.292 m 28.66,-27.337 c -2.815,-1.492 -5.797,-2.319 -8.613,-2.319 v 0 c -1.491,0 -2.981,0.165 -4.31,0.663 v 0 -13.75 c 1.161,-0.167 2.321,-0.167 3.482,-0.167 v 0 c 8.116,0 14.246,1.987 18.225,6.295 v 0 c 0.497,0.495 0.663,0.83 0.663,1.161 v 0 c 0,0.66 -0.832,2.648 -2.318,5.632 v 0 c -1.659,2.818 -2.818,4.475 -3.483,4.806 v 0 c -1.161,-0.661 -2.32,-1.495 -3.646,-2.321"
               style="fill:url(#linearGradient26);stroke:none"
               id="path28" />
          </g>
        </g>
      </g>
    </g>
    <g
       id="g30">
      <g
         id="g32"
         clip-path="url(#clipPath36)">
        <g
           id="g38"
           transform="translate(214.9204,325.2314)">
          <path
             d="m 0,0 v -12.26 h -0.167 c -1.985,0 -3.644,-0.833 -4.97,-2.486 -1.159,-1.657 -1.821,-3.48 -1.821,-5.636 0,-0.826 0.496,-1.324 1.324,-1.324 1.49,0 3.315,0.164 5.634,0.498 v -9.113 c -1.823,-0.166 -3.811,-0.33 -6.131,-0.498 0.497,-1.988 1.823,-3.645 4.143,-4.805 0.662,-0.33 1.326,-0.498 1.988,-0.661 v -13.751 c -5.966,0.495 -11.101,2.648 -15.079,6.457 -4.802,4.641 -7.124,10.609 -7.124,18.228 0,7.289 1.989,13.422 6.297,18.059 C -11.765,-2.817 -6.462,-0.331 0,0 m -25.019,-37.942 c 0,-0.498 -0.33,-1.161 -0.995,-1.989 -5.964,-7.126 -13.751,-10.603 -23.527,-10.603 -10.106,0 -18.059,3.477 -24.355,10.27 -6.131,6.628 -9.113,14.913 -9.113,25.02 0,9.775 2.982,18.059 8.949,24.854 6.13,7.123 14.081,10.602 23.526,10.602 10.439,0 18.556,-3.148 24.52,-9.609 0.665,-0.663 0.995,-1.326 0.995,-1.822 0,-0.498 -1.159,-2.817 -3.314,-6.793 -2.319,-3.813 -3.645,-6.132 -4.306,-6.628 -0.167,-0.166 -0.498,-0.33 -0.995,-0.33 -0.167,0 -0.993,0.66 -2.319,1.986 -1.823,1.494 -3.482,2.653 -5.136,3.645 -2.485,1.16 -5.137,1.822 -7.955,1.822 -4.639,0 -8.45,-1.654 -11.266,-5.3 -2.651,-3.315 -3.811,-7.291 -3.811,-12.096 0,-4.803 1.16,-8.947 3.811,-12.26 2.816,-3.646 6.627,-5.467 11.266,-5.467 2.818,0 5.47,0.662 7.955,1.821 1.654,0.83 3.313,1.988 5.136,3.478 1.326,1.16 2.152,1.825 2.319,1.825 0.33,0 0.662,-0.165 0.995,-0.498 0.494,-0.661 1.82,-2.651 4.139,-6.132 2.322,-3.478 3.481,-5.466 3.481,-5.796 m 86.158,19.052 c 0,-1.16 -0.665,-1.822 -2.155,-1.822 -0.496,0 -1.49,0 -2.65,0.164 h -2.651 c -2.652,0 -4.475,-0.328 -5.304,-1.158 -0.994,-0.829 -1.49,-2.484 -1.49,-5.137 v -6.295 c 0.165,-2.816 0.165,-4.804 0.165,-6.295 0,-0.831 0,-2.32 0.166,-4.146 0.165,-1.818 0.165,-3.145 0.165,-4.137 0,-0.666 -0.496,-1.162 -1.489,-1.162 -1.658,-0.165 -3.978,-0.332 -7.126,-0.332 -3.146,0 -5.467,0.167 -7.29,0.332 -1.159,0.166 -1.656,0.662 -1.656,1.656 v 11.433 c 0.164,5.138 0.164,8.946 0.164,11.599 0,7.452 -0.828,13.752 -2.154,18.556 v 0.828 c 0,0.496 0.167,0.829 0.664,0.829 1.823,0.331 4.308,0.662 7.786,1.16 4.971,0.992 7.623,1.492 7.79,1.492 0.493,0 0.992,-0.996 1.159,-2.985 0.164,-2.152 0.33,-3.144 0.827,-3.144 -0.497,0 0.829,0.824 3.978,2.648 2.981,1.657 5.963,2.485 8.946,2.485 1.656,0 2.649,-0.496 2.649,-1.159 0,-0.995 -0.163,-2.322 -0.33,-3.974 -0.164,-1.826 -0.33,-3.152 -0.33,-3.979 v -3.646 c 0.166,-1.988 0.166,-3.147 0.166,-3.811 M 0,-30.321 v 9.113 c 1.657,0.167 3.479,0.332 5.467,0.66 0.993,0.166 1.657,0.498 1.657,0.832 0,1.986 -0.829,3.643 -2.152,5.133 C 3.646,-13.093 1.987,-12.26 0,-12.26 V 0 h 1.823 c 6.13,0 11.265,-2.155 15.575,-6.63 4.307,-4.471 6.459,-9.941 6.459,-16.07 0,-3.314 -0.993,-5.137 -3.147,-5.465 -0.331,-0.168 -3.644,-0.5 -9.941,-1.159 C 8.117,-29.659 4.639,-29.989 0,-30.321 m 0,-19.715 v 13.751 c 1.326,-0.498 2.816,-0.663 4.308,-0.663 2.816,0 5.798,0.826 8.614,2.318 1.161,0.826 2.485,1.66 3.645,2.321 0.665,-0.331 1.825,-1.988 3.481,-4.805 1.493,-2.985 2.319,-4.973 2.319,-5.633 0,-0.331 -0.164,-0.666 -0.662,-1.16 -3.976,-4.309 -10.107,-6.295 -18.226,-6.295 -1.16,0 -2.319,0 -3.479,0.166 m 88.641,49.371 v -14.91 c -2.483,0 -4.473,-0.996 -6.13,-2.983 -1.49,-1.824 -2.32,-3.977 -2.32,-6.629 0,-2.65 0.83,-4.802 2.32,-6.624 1.657,-1.993 3.647,-2.984 6.13,-2.984 v -15.077 c -6.957,0 -12.756,2.319 -17.395,6.794 -4.475,4.47 -6.795,10.271 -6.795,17.397 0,7.455 2.156,13.421 6.464,18.059 4.472,4.638 10.269,6.957 17.726,6.957 m 146.8,-34.13 c 0,-0.829 0,-2.319 -0.333,-4.308 -0.167,-1.99 -0.332,-3.48 -0.332,-4.31 0,-0.992 -0.168,-1.488 -0.329,-1.818 -0.167,-0.166 -0.665,-0.5 -1.492,-0.997 -4.144,-2.319 -8.784,-3.478 -13.754,-3.478 -9.276,0 -13.915,3.478 -13.915,10.603 0,2.155 0,5.299 0.163,9.612 0.165,4.14 0.333,7.454 0.333,9.609 0,1.324 -0.829,1.985 -2.487,1.985 h -0.661 -0.666 c -1.159,0 -1.818,0.5 -1.818,1.326 0,0.498 0,1.327 0.165,2.319 0,0.996 0.166,1.825 0.166,2.323 0,0.661 -0.166,1.821 -0.166,3.147 -0.165,1.328 -0.165,2.32 -0.165,2.98 0,0.666 0.992,1.162 3.145,1.162 1.16,0 1.658,0.33 1.826,0.994 0.165,1.16 0.328,3.148 0.165,5.799 -0.165,4.142 -0.165,5.965 -0.165,5.799 0,3.809 0.328,5.635 1.159,5.635 0.826,0 1.986,-0.168 3.645,-0.666 1.819,-0.33 3.146,-0.494 3.812,-0.662 1.653,-0.162 4.138,-0.498 7.456,-0.828 0.659,-0.168 1.159,-0.33 1.159,-0.828 0,-1.326 -0.167,-3.316 -0.332,-5.8 -0.168,-2.65 -0.333,-4.638 -0.333,-5.964 0,-1.488 0.498,-2.319 1.325,-2.319 1.159,0 2.819,0 5.138,0.165 2.318,0 3.978,0.166 5.138,0.166 0.826,0 1.159,-0.331 1.159,-0.828 0,-0.663 -0.167,-1.825 -0.333,-3.315 -0.167,-1.49 -0.167,-2.486 -0.167,-3.314 v -3.313 -3.478 c 0,-0.665 -0.331,-0.995 -1.325,-0.995 -0.662,0 -1.66,0.166 -3.146,0.166 h -3.316 -3.647 c -0.493,0 -0.661,-0.664 -0.661,-2.156 v -3.312 -3.479 c 0,-2.652 0.333,-4.474 0.994,-5.634 0.827,-1.327 2.487,-1.988 4.971,-1.988 0.831,0 1.986,0.165 3.478,0.498 1.493,0.493 2.652,0.661 3.152,0.661 0.661,0 0.994,-0.33 0.994,-1.159 m 36.944,15.905 c 0,-1.16 -0.661,-1.822 -1.986,-1.822 -0.661,0 -1.492,0 -2.653,0.164 h -2.652 c -2.647,0 -4.472,-0.328 -5.465,-1.158 -0.994,-0.829 -1.492,-2.484 -1.492,-5.137 0,-1.322 0.166,-3.478 0.166,-6.295 v -6.295 c 0,-0.831 0.167,-2.32 0.332,-4.146 0,-1.818 0.168,-3.145 0.168,-4.137 0,-0.666 -0.666,-1.162 -1.66,-1.162 -1.492,-0.165 -3.81,-0.332 -7.124,-0.332 -2.984,0 -5.468,0.167 -7.289,0.332 -0.994,0.166 -1.492,0.662 -1.492,1.656 v 11.433 11.599 c 0,7.452 -0.661,13.752 -1.987,18.556 -0.167,0.33 -0.167,0.664 -0.167,0.828 0,0.496 0.333,0.829 0.827,0.829 1.66,0.331 4.311,0.662 7.625,1.16 5.135,0.992 7.783,1.492 7.95,1.492 0.498,0 0.831,-0.996 0.998,-2.985 0.161,-2.152 0.494,-3.144 0.992,-3.144 -0.498,0 0.827,0.824 3.811,2.648 3.148,1.657 6.132,2.485 8.945,2.485 1.825,0 2.651,-0.496 2.651,-1.159 0,-0.995 0,-2.322 -0.165,-3.974 -0.333,-1.826 -0.333,-3.152 -0.333,-3.979 v -3.646 z M 88.641,-49.872 v 15.077 h 0.166 c 2.485,0 4.475,0.991 6.131,2.984 1.49,1.822 2.319,3.974 2.319,6.624 0,2.487 -0.829,4.805 -2.319,6.795 -1.656,1.821 -3.646,2.817 -6.131,2.817 h -0.166 v 14.91 c 7.29,0 13.09,-2.319 17.729,-6.789 4.473,-4.643 6.627,-10.443 6.627,-17.733 0,-7.289 -2.154,-13.253 -6.627,-17.726 -4.474,-4.64 -10.439,-6.959 -17.729,-6.959 M 298.399,0 v -12.26 h -0.165 c -2.154,0 -3.808,-0.833 -5.139,-2.486 -1.159,-1.657 -1.82,-3.48 -1.82,-5.636 0,-0.826 0.5,-1.324 1.327,-1.324 1.492,0 3.313,0.164 5.797,0.498 v -9.113 c -1.986,-0.166 -3.973,-0.33 -6.297,-0.498 0.5,-1.988 1.824,-3.645 4.144,-4.805 0.661,-0.33 1.326,-0.498 2.153,-0.661 v -13.751 c -6.13,0.495 -11.264,2.648 -15.24,6.457 -4.805,4.641 -7.13,10.609 -7.13,18.228 0,7.289 2.157,13.422 6.465,18.059 3.976,4.475 9.281,6.961 15.905,7.292 m 66.77,4.803 c -18.058,9.444 -49.373,-7.452 -35.291,-27.503 0.166,-0.331 1.659,-1.987 4.638,-5.137 1.66,-1.988 2.486,-3.48 2.486,-4.97 0,-1.988 -1.487,-3.478 -4.306,-4.474 -2.32,-0.331 -4.471,-0.827 -6.791,-1.159 -0.331,-0.168 -0.498,-0.331 -0.498,-0.498 0,-0.83 1.159,-2.981 3.312,-6.459 2.32,-3.481 3.646,-5.137 4.31,-5.137 2.979,0 6.132,0.662 9.442,2.152 3.153,1.325 5.965,3.151 8.451,5.137 0.995,0.994 1.991,2.486 2.652,4.474 0.661,1.823 0.994,3.478 0.994,5.135 0,2.817 -0.829,5.471 -2.486,7.955 -0.499,0.827 -1.987,2.65 -4.473,5.133 -3.977,4.31 -3.15,9.942 2.98,12.926 2.487,1.16 2.324,0.498 5.138,1.658 -0.661,0.828 -1.82,1.489 -3.312,1.82 6.296,2.154 11.761,0.995 16.731,-6.129 -0.165,8.283 -4.305,12.426 -11.762,12.592 2.154,1.655 3.812,1.655 7.785,2.484 m -66.77,-35.124 v 9.113 c 1.492,0.167 3.312,0.332 5.303,0.66 1.16,0.166 1.656,0.498 1.656,0.832 0,1.986 -0.662,3.643 -2.154,5.133 -1.327,1.49 -2.98,2.323 -4.805,2.323 V 0 h 1.659 c 6.13,0 11.434,-2.155 15.738,-6.63 4.307,-4.471 6.465,-9.941 6.465,-16.07 0,-3.314 -1.159,-5.137 -3.152,-5.465 -0.493,-0.168 -3.811,-0.5 -9.941,-1.159 -2.814,-0.335 -6.296,-0.665 -10.769,-0.997 m 0,-19.715 v 13.751 c 1.159,-0.498 2.651,-0.663 4.143,-0.663 2.816,0 5.799,0.826 8.617,2.318 1.327,0.826 2.486,1.66 3.645,2.321 0.661,-0.331 1.821,-1.988 3.479,-4.805 1.492,-2.985 2.318,-4.973 2.318,-5.633 0,-0.331 -0.165,-0.666 -0.665,-1.16 -3.973,-4.309 -9.936,-6.295 -18.225,-6.295 -1.159,0 -2.318,0 -3.312,0.166"
             style="fill:#442426;fill-opacity:1;fill-rule:evenodd;stroke:none"
             id="path40" />
        </g>
      </g>
    </g>
    <g
       id="g42">
      <g
         id="g44">
        <g
           id="g50">
          <g
             id="g52">
            <path
               d="m 286.166,444.192 c -9.446,0 -18.062,2.651 -24.026,6.959 v 0 c -4.472,-34.794 -4.638,-68.925 0.996,-101.894 v 0 h 102.722 c 6.464,34.13 5.638,68.094 0.994,102.06 v 0 c -6.128,-4.309 -14.746,-7.125 -24.352,-7.125 v 0 c -11.764,0 -22.204,4.142 -28.169,10.439 v 0 c -5.965,-6.297 -16.401,-10.439 -28.165,-10.439"
               style="fill:url(#linearGradient58);stroke:none"
               id="path60" />
          </g>
        </g>
      </g>
    </g>
    <g
       id="g62">
      <g
         id="g64"
         clip-path="url(#clipPath68)">
        <g
           id="g70"
           transform="translate(328.084,435.4111)">
          <path
             d="m 0,0 v -15.078 c 0,-1.491 -1.657,-2.65 -3.479,-2.65 h -7.125 c -1.821,0 -2.318,0.332 -2.484,2.153 l -0.996,5.965 v -5.965 c 0,-1.656 -0.164,-2.153 -1.989,-2.153 h -7.952 c -1.821,0 -3.48,1.159 -3.48,2.65 V 0 Z"
             style="fill:#ffffff;fill-opacity:1;fill-rule:evenodd;stroke:none"
             id="path72" />
        </g>
      </g>
    </g>
    <g
       id="g74">
      <g
         id="g76">
        <g
           id="g82">
          <g
             id="g84">
            <path
               d="m 364.37,482.632 5.466,-23.693 c 8.118,-37.778 6.959,-75.386 0,-109.682 v 0 c 25.849,0 81.185,3.311 92.119,33.963 v 0 c -2.652,-0.827 -8.776,-3.147 -10.601,-3.811 v 0 c 16.237,16.735 17.725,45.397 -8.617,64.452 v 0 c -14.581,10.77 -31.147,17.065 -27.007,35.126 v 0 c 4.804,21.207 33.967,23.362 47.058,4.638 v 0 c -4.644,18.724 -15.907,25.018 -31.98,24.522 v 0 c 3.646,4.804 5.633,5.633 14.083,7.953 v 0 c -6.891,2.344 -13.887,3.432 -20.766,3.431 v 0 c -25.703,-0.002 -49.692,-15.203 -59.755,-36.899"
               style="fill:url(#linearGradient90);stroke:none"
               id="path92" />
          </g>
        </g>
      </g>
    </g>
    <g
       id="g94">
      <g
         id="g96">
        <g
           id="g102">
          <g
             id="g104">
            <path
               d="m 364.37,482.632 5.466,-23.693 c 8.118,-37.778 6.959,-75.386 0,-109.682 v 0 c 3.978,0 7.79,0.493 11.435,1.487 v 0 c 4.305,0.996 8.284,2.653 12.096,4.641 v 0 c 23.195,12.592 37.108,34.463 30.484,59.813 v 0 c -1.658,-2.155 -5.47,-10.108 -6.462,-11.764 v 0 c 2.98,7.456 -1.16,23.858 -4.472,25.349 v 0 l -1.66,-5.136 c -8.782,10.604 -21.043,21.042 -26.675,33.801 v 0 c -9.115,20.709 -3.643,47.053 20.545,59.315 v 0 C 387.068,511.46 371.822,498.867 364.37,482.632"
               style="fill:url(#linearGradient110);stroke:none"
               id="path112" />
          </g>
        </g>
      </g>
    </g>
    <g
       id="g114">
      <g
         id="g116"
         clip-path="url(#clipPath120)">
        <g
           id="g122"
           transform="translate(286.166,489.5903)">
          <path
             d="M 0,0 C 11.764,0 22.2,-4.143 28.165,-10.438 34.13,-4.143 44.569,0 56.334,0 c 18.39,0 33.301,-10.273 33.301,-22.699 0,-12.593 -14.911,-22.699 -33.301,-22.699 -11.765,0 -22.204,4.142 -28.169,10.439 C 22.2,-41.256 11.764,-45.398 0,-45.398 c -18.392,0 -33.303,10.106 -33.303,22.699 C -33.303,-10.273 -18.392,0 0,0"
             style="fill:#ffffff;fill-opacity:1;fill-rule:evenodd;stroke:none"
             id="path124" />
        </g>
        <g
           id="g126"
           transform="translate(287.6548,457.9443)">
          <path
             d="m 0,0 c 5.8,0 10.441,3.811 10.441,8.615 0,4.639 -4.641,8.449 -10.441,8.449 -5.63,0 -10.269,-3.81 -10.269,-8.449 C -10.269,3.811 -5.63,0 0,0"
             style="fill:#442426;fill-opacity:1;fill-rule:evenodd;stroke:none"
             id="path128" />
        </g>
        <g
           id="g130"
           transform="translate(341.0078,457.9443)">
          <path
             d="m 0,0 c 5.634,0 10.271,3.811 10.271,8.615 0,4.639 -4.637,8.449 -10.271,8.449 -5.8,0 -10.439,-3.81 -10.439,-8.449 C -10.439,3.811 -5.8,0 0,0"
             style="fill:#442426;fill-opacity:1;fill-rule:evenodd;stroke:none"
             id="path132" />
        </g>
      </g>
    </g>
    <g
       id="g134">
      <g
         id="g136">
        <g
           id="g142">
          <g
             id="g144">
            <path
               d="m 257.999,468.548 v -1.491 c 0,-11.101 12.59,-20.214 28.167,-20.545 v 0 c -13.421,1.822 -23.694,10.271 -23.694,20.214 v 0 c 0,0.663 0.165,1.159 0.165,1.822 v 0 z"
               style="fill:url(#linearGradient150);stroke:none"
               id="path152" />
          </g>
        </g>
      </g>
    </g>
    <g
       id="g154">
      <g
         id="g156">
        <g
           id="g162">
          <g
             id="g164">
            <path
               d="m 315.988,420.333 c 0.167,-1.325 1.492,-2.153 3.149,-2.153 v 0 l 6.957,0.662 c 1.326,0 1.492,0.332 1.492,1.326 v 0 l -6.46,-0.497 c -1.325,-0.165 -2.651,0.497 -3.151,1.49 v 0 c -0.33,0.331 -0.659,0.664 -0.659,1.161 v 0 l -2.154,8.45 z"
               style="fill:url(#linearGradient170);stroke:none"
               id="path172" />
          </g>
        </g>
      </g>
    </g>
    <g
       id="g174">
      <g
         id="g176"
         clip-path="url(#clipPath180)">
        <g
           id="g182"
           transform="translate(314.3311,431.9316)">
          <path
             d="m 0,0 c 11.764,0 21.208,6.627 21.208,14.581 0,7.952 -9.444,14.414 -21.208,14.414 -11.763,0 -21.206,-6.462 -21.206,-14.414 C -21.206,6.627 -11.763,0 0,0"
             style="fill:#442426;fill-opacity:1;fill-rule:evenodd;stroke:none"
             id="path184" />
        </g>
        <g
           id="g186"
           transform="translate(322.1191,447.6719)">
          <path
             d="M 0,0 C 3.149,0 5.798,1.822 5.798,4.143 5.798,6.296 3.149,8.119 0,8.119 -3.312,8.119 -5.964,6.296 -5.964,4.143 -5.964,1.822 -3.312,0 0,0"
             style="fill:#ffffff;fill-opacity:1;fill-rule:evenodd;stroke:none"
             id="path188" />
        </g>
      </g>
    </g>
    <g
       id="g190">
      <g
         id="g192">
        <g
           id="g198">
          <g
             id="g200">
            <path
               d="m 335.54,489.092 c -8.284,-0.993 -15.573,-4.141 -21.209,-9.94 v 0 c -5.632,5.799 -13.421,8.947 -21.372,9.94 v 0 c -1.161,12.924 -17.565,15.409 -22.699,25.02 v 0 c -7.457,-14.913 -3.479,-20.545 -1.326,-27.836 v 0 l -0.995,-0.496 c -8.451,-3.812 -14.249,-9.941 -15.076,-17.232 v 0 H 375.8 c -0.826,7.291 -6.629,13.42 -15.076,17.232 v 0 l -0.993,0.496 c 5.633,12.591 3.147,17.563 -3.148,28.001 v 0 c -6.13,-11.763 -12.76,-5.634 -21.043,-25.185"
               style="fill:url(#linearGradient206);stroke:none"
               id="path208" />
          </g>
        </g>
      </g>
    </g>
    <g
       id="g210">
      <g
         id="g212"
         clip-path="url(#clipPath216)">
        <g
           id="g218"
           transform="translate(274.2368,487.6011)">
          <path
             d="M 0,0 C -1.162,3.813 -3.151,6.794 0.664,14.581 3.313,9.611 11.763,8.285 12.425,1.658 h 0.331 -1.823 C 6.958,1.658 3.313,1.161 0,0"
             style="fill:#ffffff;fill-opacity:1;fill-rule:evenodd;stroke:none"
             id="path220" />
        </g>
        <g
           id="g222"
           transform="translate(354.5928,487.6011)">
          <path
             d="M 0,0 C 1.159,3.813 3.149,6.794 -0.664,14.581 -3.313,9.611 -11.763,8.285 -12.425,1.658 h -0.167 1.823 C -6.959,1.658 -3.313,1.161 0,0"
             style="fill:#ffffff;fill-opacity:1;fill-rule:evenodd;stroke:none"
             id="path224" />
        </g>
      </g>
    </g>
    <g
       id="g226">
      <g
         id="g228">
        <g
           id="g234">
          <g
             id="g236">
            <path
               d="m 257.999,468.548 h 4.638 c -0.331,10.108 10.108,17.066 19.054,18.557 v 0 c -9.277,-0.332 -23.527,-6.131 -23.692,-18.557"
               style="fill:url(#linearGradient242);stroke:none"
               id="path244" />
          </g>
        </g>
      </g>
    </g>
    <g
       id="g246">
      <g
         id="g248">
        <g
           id="g254">
          <g
             id="g256">
            <path
               d="m 315.988,468.548 h 4.473 c -0.165,11.101 10.605,17.398 19.22,18.557 v 0 c -0.411,0.031 -0.826,0.046 -1.243,0.046 v 0 c -10.855,0 -23.566,-10.146 -22.45,-18.603"
               style="fill:url(#linearGradient262);stroke:none"
               id="path264" />
          </g>
        </g>
      </g>
    </g>
    <g
       id="g266">
      <g
         id="g268">
        <g
           id="g274">
          <g
             id="g276">
            <path
               d="m 268.603,349.257 h 90.795 c -7.292,27.169 -39.268,16.07 -59.148,33.632 v 0 c -15.741,14.083 -18.393,40.427 -15.907,61.303 v 0 c -5.634,0.166 -10.77,1.325 -15.243,3.148 v 0 c -4.805,-26.012 -4.805,-57.492 -0.497,-98.083"
               style="fill:url(#linearGradient282);stroke:none"
               id="path284" />
          </g>
        </g>
      </g>
    </g>
    <g
       id="g286">
      <g
         id="g288">
        <g
           id="g294">
          <g
             id="g296">
            <path
               d="m 316.983,350.082 v -0.825 h -5.137 v 0.825 c 0,10.107 -9.444,18.391 -21.209,18.391 v 0 c -11.761,0 -21.374,-8.284 -21.374,-18.391 v 0 -0.825 h -0.163 96.264 -5.801 v 0.825 c 0,10.107 -9.608,18.391 -21.371,18.391 v 0 c -11.765,0 -21.209,-8.284 -21.209,-18.391"
               style="fill:url(#linearGradient302);stroke:none"
               id="path304" />
          </g>
        </g>
      </g>
    </g>
    <g
       id="g306">
      <g
         id="g308"
         clip-path="url(#clipPath312)">
        <g
           id="g314"
           transform="translate(293.6196,349.2568)">
          <path
             d="M 0,0 H -5.965 C -5.299,12.093 0.166,9.274 0,0 m -12.092,0 h -6.134 c 0.167,2.151 0.666,3.478 1.493,4.47 5.303,7.957 4.308,-0.661 4.641,-4.47 M 12.261,0 H 6.131 C 6.131,4.638 5.8,12.427 10.605,4.968 11.765,3.144 11.931,2.319 12.261,0"
             style="fill:#442426;fill-opacity:1;fill-rule:evenodd;stroke:none"
             id="path316" />
        </g>
        <g
           id="g318"
           transform="translate(341.3374,349.2568)">
          <path
             d="M 0,0 H -6.13 C -5.465,12.093 0,9.274 0,0 m -12.261,0 h -5.964 c 0.166,2.151 0.663,3.478 1.326,4.47 5.304,7.957 4.474,-0.661 4.638,-4.47 m 24.356,0 h -6.13 c 0.166,4.638 -0.33,12.427 4.64,4.968 1.16,-1.824 1.16,-2.649 1.49,-4.968"
             style="fill:#442426;fill-opacity:1;fill-rule:evenodd;stroke:none"
             id="path320" />
        </g>
      </g>
    </g>
    <g
       id="g322">
      <g
         id="g324">
        <g
           id="g330">
          <g
             id="g332">
            <path
               d="m 301.576,420.665 c 0,-1.159 1.325,-2.154 2.981,-2.154 v 0 h 6.96 c 1.324,0 1.653,0.331 1.653,1.16 v 0 h -6.46 c -1.822,0 -3.148,1.16 -3.148,2.485 v 0 11.929 c -0.661,0.166 -1.324,0.497 -1.986,0.829 v 0 z"
               style="fill:url(#linearGradient338);stroke:none"
               id="path340" />
          </g>
        </g>
      </g>
    </g>
    <g
       id="g342">
      <g
         id="g344">
        <g
           id="g350">
          <g
             id="g352">
            <path
               d="m 315.823,468.548 v -1.491 c 0,-2.154 0.498,-4.308 1.325,-6.297 v 0 c 1.66,-0.164 3.313,-0.496 4.805,-0.828 v 0 c -0.993,2.154 -1.657,4.308 -1.657,6.794 v 0 c 0,0.663 0.165,1.159 0.165,1.822 v 0 z m 19.717,-20.876 c 2.652,-0.664 5.468,-0.994 8.45,-1.16 v 0 c -3.148,0.496 -5.964,1.326 -8.616,2.319 v 0 c 0,-0.33 0.166,-0.829 0.166,-1.159"
               style="fill:url(#linearGradient358);stroke:none"
               id="path360" />
          </g>
        </g>
      </g>
    </g>
    <g
       id="g362">
      <g
         id="g364">
        <g
           id="g370">
          <g
             id="g372">
            <path
               d="m 464.151,361.856 c -2.595,0 -4.665,-2.014 -4.665,-4.526 v 0 c 0,-2.564 2.07,-4.553 4.665,-4.553 v 0 c 2.62,0 4.635,1.989 4.635,4.553 v 0 c 0,2.512 -2.015,4.526 -4.608,4.526 v 0 z m 0.027,-8.142 c -2.042,0 -3.533,1.6 -3.533,3.616 v 0 c 0,1.986 1.491,3.618 3.479,3.618 v 0 h 0.027 c 2.013,0 3.475,-1.632 3.475,-3.618 v 0 c 0,-2 -1.438,-3.616 -3.4,-3.616 v 0 c -0.016,0 -0.032,0 -0.048,0 m -1.793,5.768 v -4.498 h 1.046 v 1.794 h 0.5 c 0.578,0 0.854,-0.221 0.935,-0.717 v 0 c 0.139,-0.524 0.223,-0.91 0.358,-1.077 v 0 h 1.133 c -0.109,0.137 -0.193,0.412 -0.333,1.104 v 0 c -0.135,0.606 -0.384,0.966 -0.827,1.106 v 0 0.053 c 0.553,0.167 0.94,0.552 0.94,1.075 v 0 c 0,0.415 -0.193,0.775 -0.44,0.967 v 0 c -0.333,0.222 -0.719,0.36 -1.573,0.36 v 0 c -0.748,0 -1.327,-0.083 -1.739,-0.167 m 1.073,-0.662 c 0.113,0.025 0.306,0.055 0.58,0.055 v 0 c 0.664,0 0.967,-0.275 0.967,-0.689 v 0 c 0,-0.47 -0.467,-0.663 -1.049,-0.663 v 0 h -0.498 z"
               style="fill:url(#linearGradient378);stroke:none"
               id="path380" />
          </g>
        </g>
      </g>
    </g>
  </g>
</svg>
